<svg width="13" height="12" viewBox="0 0 13 12" fill="none" xmlns="http://www.w3.org/2000/svg">
<path fill-rule="evenodd" clip-rule="evenodd" d="M12.1292 10.2L7.93698 5.98417L12.1528 1.79192C12.5413 1.40553 12.5424 0.778429 12.1567 0.390576C11.771 0.00272443 11.1439 0.000268755 10.7553 0.386655L6.53956 4.57891L2.34731 0.363124C1.96162 -0.0247281 1.33453 -0.0271838 0.945971 0.359202C0.557416 0.745588 0.556362 1.37269 0.94205 1.76054L5.1343 5.97633L0.918519 10.1686C0.529964 10.555 0.52891 11.1821 0.914597 11.5699C1.30028 11.9578 1.92738 11.9602 2.31594 11.5738L6.53172 7.38159L10.724 11.5974C11.1097 11.9852 11.7368 11.9877 12.1253 11.6013C12.5139 11.2149 12.5149 10.5878 12.1292 10.2Z" fill="black"/>
</svg>
