<svg width="40" height="41" viewBox="0 0 40 41" fill="none" xmlns="http://www.w3.org/2000/svg">
<path d="M30.6638 7.90189L30.9696 7.51765L30.5909 7.20501C27.6756 4.79787 23.9729 3.35998 19.922 3.35998C18.5029 3.35998 17.1269 3.55879 15.8241 3.8845L15.097 4.06629L15.5441 4.66785C16.9347 6.53872 18.9324 9.36428 21.3248 13.7896L21.5314 14.1718L21.9387 14.0205C26.466 12.3395 29.1789 9.76804 30.6638 7.90189ZM13.3635 5.14412L13.1185 4.82133L12.752 4.99422C8.25585 7.11505 4.84948 11.1659 3.50482 16.1128L3.33874 16.7238L3.97159 16.7437C6.44748 16.8217 12.3657 16.705 18.9233 14.9482L19.5418 14.7825L19.2311 14.2226C16.6877 9.63894 14.5487 6.7054 13.3635 5.14412ZM32.8173 9.4031L32.4296 8.94246L32.048 9.40819C30.392 11.4294 27.5168 14.0547 22.9644 15.8361L22.4581 16.0342L22.6978 16.5221C23.6793 18.5203 24.6315 20.6496 25.4991 22.949L25.6421 23.3279L26.0424 23.2668C29.3356 22.7639 32.3798 22.7639 34.6792 22.944C35.2383 22.9904 35.5991 23.0425 36.019 23.1031C36.1074 23.1159 36.1985 23.1291 36.2946 23.1426L36.8066 23.2149L36.8616 22.7007C36.929 22.0701 36.9678 21.4368 36.9678 20.7822C36.9678 16.4287 35.3905 12.4602 32.8173 9.4031ZM20.6703 17.0304L20.4852 16.6592L20.0862 16.7726C12.373 18.9639 5.57827 18.897 3.46222 18.8116L2.98039 18.7921L2.94352 19.2729L2.94094 19.3066C2.90437 19.7831 2.86685 20.2721 2.86685 20.7918C2.86685 26.0256 5.13121 30.6976 8.70216 33.8945L9.07495 34.2283L9.40843 33.8552C10.3036 32.8539 11.5041 31.5786 12.9638 30.2474L12.9658 30.2456C15.712 27.7139 19.2455 25.0351 23.0945 23.8663L23.6114 23.7093L23.415 23.2061C22.5534 20.9984 21.6258 18.9462 20.6703 17.0304ZM30.1599 24.9266L30.1599 24.9266L30.1545 24.9268C29.1433 24.9756 28.067 25.0731 26.9725 25.2191L26.3777 25.2984L26.5631 25.8692C27.4868 28.713 28.2509 31.7255 28.7446 34.8593L28.8688 35.6482L29.5242 35.1919C32.7102 32.9733 35.1203 29.6763 36.243 25.8059L36.4082 25.2363L35.8189 25.1698C34.3588 25.0049 32.5075 24.8387 30.1599 24.9266ZM24.5039 26.1119L24.3503 25.6585L23.8906 25.7922C20.5092 26.7761 16.9722 29.3274 14.2917 31.7878C12.9966 32.9664 11.9506 34.0851 11.1112 35.0015L10.6985 35.452L11.2218 35.7674C13.7674 37.3018 16.7233 38.2045 19.9126 38.2045C22.3063 38.2045 24.564 37.6988 26.6259 36.8078L26.9739 36.6573L26.923 36.2816C26.4388 32.7078 25.5845 29.3017 24.5039 26.1119ZM0.86792 20.7822C0.86792 10.029 9.43516 1.2832 19.922 1.2832C30.4089 1.2832 38.9762 10.029 38.9762 20.7822C38.9762 31.5354 30.4089 40.2812 19.922 40.2812C9.43516 40.2812 0.86792 31.5354 0.86792 20.7822Z" fill="#070707" stroke="#070707"/>
</svg>
