<?xml version="1.0" standalone="no"?>
<!DOCTYPE svg PUBLIC "-//W3C//DTD SVG 20010904//EN"
 "http://www.w3.org/TR/2001/REC-SVG-20010904/DTD/svg10.dtd">
<svg version="1.0" xmlns="http://www.w3.org/2000/svg"
 width="256.000000pt" height="256.000000pt" viewBox="0 0 256.000000 256.000000"
 preserveAspectRatio="xMidYMid meet">
<metadata>
Created by potrace 1.14, written by Peter Selinger 2001-2017
</metadata>
<g transform="translate(0.000000,256.000000) scale(0.100000,-0.100000)"
fill="#000000" stroke="none">
<path d="M1127 2384 c-125 -22 -255 -85 -277 -132 -5 -13 -10 -74 -10 -137 l0
-114 -363 -3 -364 -3 -36 -25 c-20 -13 -45 -41 -56 -61 -20 -35 -21 -53 -21
-342 0 -312 3 -343 40 -382 18 -19 19 -45 22 -466 l3 -445 25 -37 c13 -20 41
-45 61 -56 36 -21 46 -21 1129 -21 l1092 0 40 22 c21 12 49 38 61 58 22 34 22
41 25 480 3 420 4 446 22 465 37 39 40 70 40 382 0 297 -1 306 -22 345 -12 21
-38 49 -58 61 -34 21 -44 22 -397 25 l-363 3 0 114 c0 63 -5 125 -11 137 -22
50 -149 109 -286 133 -104 18 -192 18 -296 -1z m353 -186 l65 -23 3 -88 3 -87
-271 0 -271 0 3 87 3 87 50 19 c82 31 124 36 240 33 84 -3 125 -10 175 -28z
m-65 -1185 c14 -14 16 -35 13 -139 -3 -133 -11 -153 -72 -198 -38 -29 -114
-29 -152 0 -61 45 -69 65 -72 198 -5 160 -9 156 148 156 97 0 122 -3 135 -17z"/>
</g>
</svg>
